<svg width="177" xmlns="http://www.w3.org/2000/svg" height="177" fill="none"><g mask="url(#b)" clip-path="url(#a)" data-testid="Logo"><defs><clipPath id="a" class="mask-clip-path"><polyline points="0,0 177,0 177,177 0,177"/></clipPath><filter id="c"><feFlood flood-color="#fff" result="FloodResult"/><feComposite in="FloodResult" in2="SourceGraphic" operator="in" result="comp"/></filter><mask width="177" maskUnits="userSpaceOnUse" height="177" class="mask-shape" x="0" id="b" data-old-y="0" data-old-width="177" data-old-x="0" y="0" data-old-height="177"><g filter="url(#c)"><circle cx="88.5" cy="88.5" style="fill: rgb(45, 45, 45); fill-opacity: 1;" r="88.5" class="fills" data-testid="Ellipse"/></g></mask></defs><g data-testid="Ellipse"><circle cx="88.5" cy="88.5" style="fill: rgb(33, 37, 41); fill-opacity: 1;" r="88.5" class="fills"/><g class="strokes"><g class="inner-stroke-shape"><defs><clipPath id="e"><use href="#d"/></clipPath><circle cx="88.5" cy="88.5" id="d" style="fill: none; stroke-width: 20; stroke: rgb(33, 37, 41); stroke-opacity: 1;" r="88.5"/></defs><use href="#d" clip-path="url('#e')"/></g></g></g><path d="M24.733 143.972c13.685-23.045 111.467-23.391 127.045-.026 3.54 5.31-.081 43.365-.081 43.365H25.42s-3.925-37.885-.687-43.339Z" style="fill: rgb(255, 255, 255); fill-opacity: 1;" class="fills" data-testid="Rectangle"/><g data-testid="Ellipse"><path d="M88.5 27.878c27.353 0 49.56 22.207 49.56 49.56 0 15.172-.219 34.291-9.292 43.364-9.736 9.736-26.993 5.31-40.268 5.31-14.104 0-33.451 3.717-42.48-5.752-8.482-8.896-7.08-29.673-7.08-42.922 0-27.353 22.207-49.56 49.56-49.56ZM88.5 126.112" style="fill: rgb(255, 255, 255); fill-opacity: 1;" class="fills"/><g class="strokes"><g class="outer-stroke-shape"><defs><path d="M88.5 27.878c27.353 0 49.56 22.207 49.56 49.56 0 15.172-.219 34.291-9.292 43.364-9.736 9.736-26.993 5.31-40.268 5.31-14.104 0-33.451 3.717-42.48-5.752-8.482-8.896-7.08-29.673-7.08-42.922 0-27.353 22.207-49.56 49.56-49.56ZM88.5 126.112" id="f"/><mask id="g" x="25.541" y="15.806" width="124.59" height="124.59" maskUnits="userSpaceOnUse"><use href="#f" style="fill: none; stroke: white; stroke-width: 10;"/><use href="#f" style="fill: black; stroke: none;"/></mask></defs><use href="#f" mask="url(#g)" style="fill: none; stroke-width: 10; stroke: rgb(33, 37, 41); stroke-opacity: 1;"/><use href="#f" style="fill: none; stroke-width: 5; stroke: none; stroke-opacity: 1;"/></g></g></g><g data-testid="Ellipse"><circle cx="88.5" cy="88.5" r="88.5" class="fills"/><g class="strokes"><g class="inner-stroke-shape"><defs><clipPath id="i"><use href="#h"/></clipPath><circle cx="88.5" cy="88.5" id="h" style="fill: none; stroke-width: 16; stroke: rgb(33, 37, 41); stroke-opacity: 1;" r="88.5"/></defs><use href="#h" clip-path="url('#i')"/></g></g></g><g data-testid="Rectangle"><defs><linearGradient id="j" x1=".84" y1="-.024" x2=".316" y2="1.002"><stop offset="0" stop-color="#33e790"/><stop offset="1" stop-color="#108f55"/></linearGradient><pattern patternUnits="userSpaceOnUse" x="42.922" y="53.985" width="91.155" height="62.393" id="k"><rect width="91.155" height="62.393" style="fill: url(&quot;#j&quot;);"/></pattern></defs><path d="M61.527 53.985h58.409c21.327 0 13.24 51.959 9.38 55.817-10.233 9.8-72.906 7.67-81.859 0-3.411-3.408-13.218-55.817 14.07-55.817Zm58.409 0" fill="url(#k)" class="fills"/><g class="strokes"><g class="outer-stroke-shape"><defs><path d="M61.527 53.985h58.409c21.327 0 13.24 51.959 9.38 55.817-10.233 9.8-72.906 7.67-81.859 0-3.411-3.408-13.218-55.817 14.07-55.817Zm58.409 0" id="l"/><mask id="m" x="35.68" y="46.742" width="105.64" height="76.878" maskUnits="userSpaceOnUse"><use href="#l" style="fill: none; stroke: white; stroke-width: 6;"/><use href="#l" style="fill: black; stroke: none;"/></mask></defs><use href="#l" mask="url(#m)" style="fill: none; stroke-width: 6; stroke: rgb(233, 236, 239); stroke-opacity: 1;"/><use href="#l" style="fill: none; stroke-width: 3; stroke: none; stroke-opacity: 1;"/></g></g></g><g mask="url(#o)" clip-path="url(#n)" data-testid="glass"><defs><clipPath id="n" class="mask-clip-path"><polyline points="42.92250000000013,53.98499999999967 134.07750000000033,53.98499999999967 134.07750000000033,116.37750000000005 42.92250000000013,116.37750000000005"/></clipPath><filter id="p"><feFlood flood-color="#fff" result="FloodResult"/><feComposite in="FloodResult" in2="SourceGraphic" operator="in" result="comp"/></filter><mask width="91.155" maskUnits="userSpaceOnUse" height="62.393" class="mask-shape" x="42.923" id="o" data-old-y="53.985" data-old-width="91.155" data-old-x="42.923" y="53.985" data-old-height="62.393"><g filter="url(#p)"><g data-testid="Rectangle"><defs><linearGradient id="q" x1=".864" y1=".002" x2=".095" y2=".945"><stop offset="0" stop-color="#27d384"/><stop offset="1" stop-color="#595959"/></linearGradient><pattern patternUnits="userSpaceOnUse" x="42.922" y="53.985" width="91.155" height="62.393" id="r"><rect width="91.155" height="62.393" style="fill: url(&quot;#q&quot;);"/></pattern></defs><path d="M61.527 53.985h58.409c21.327 0 13.24 51.959 9.38 55.817-10.233 9.8-72.906 7.67-81.859 0-3.411-3.408-13.218-55.817 14.07-55.817Zm58.409 0" fill="url(#r)" class="fills"/></g></g></mask></defs><rect rx="0" ry="0" x="101.571" y="49.91" transform="rotate(35.741 106.66 94.38)" width="10.178" height="88.943" style="fill: rgb(255, 255, 255); fill-opacity: 0.25;" class="fills" data-testid="Rectangle"/><rect rx="0" ry="0" x="114.143" y="53.724" transform="rotate(35.741 115.913 98.195)" width="3.54" height="88.943" style="fill: rgb(255, 255, 255); fill-opacity: 0.25;" class="fills" data-testid="Rectangle"/></g><g data-testid="Top"><rect rx="1.106" ry="1.106" x="73.455" y="43.365" width="30.09" height="2.213" style="fill: rgb(233, 236, 239); fill-opacity: 1;" class="fills" data-testid="Rectangle"/><rect rx="1.106" ry="1.106" x="75.667" y="38.94" width="25.665" height="2.213" style="fill: rgb(233, 236, 239); fill-opacity: 1;" class="fills" data-testid="Rectangle"/><rect rx="1.106" ry="1.106" x="77.88" y="34.957" width="21.24" height="2.212" style="fill: rgb(233, 236, 239); fill-opacity: 1;" class="fills" data-testid="Rectangle"/></g><g data-testid="Sides"><rect rx="3.982" ry="3.982" x="140.715" y="71.242" width="7.965" height="22.125" style="fill: rgb(255, 255, 255); fill-opacity: 1;" class="fills" data-testid="Rectangle"/><rect rx="3.982" ry="3.982" x="28.32" y="71.685" width="7.965" height="22.125" style="fill: rgb(255, 255, 255); fill-opacity: 1;" class="fills" data-testid="Rectangle"/></g><path d="M65.932 53.985h45.136c-.578-.012-.886.892-.886.892v3.533a2.213 2.213 0 0 1-2.212 2.212H69.03a2.213 2.213 0 0 1-2.212-2.212v-3.542s-.307-.895-.886-.883Zm42.259.885" style="fill: rgb(40, 189, 121); fill-opacity: 1;" class="fills" data-testid="Rectangle"/></g></svg>